<svg width="17" height="16" viewBox="0 0 17 16" fill="none" xmlns="http://www.w3.org/2000/svg">
<path d="M10.0352 14.9297C10.3867 14.5781 10.3516 14.0508 10.0352 13.6992L5.78125 9.65625H15.9062C16.3633 9.65625 16.75 9.30469 16.75 8.8125V7.6875C16.75 7.23047 16.3633 6.84375 15.9062 6.84375H5.78125L10.0352 2.83594C10.3516 2.48438 10.3867 1.95703 10.0352 1.60547L9.26172 0.832031C8.94531 0.515625 8.38281 0.515625 8.06641 0.832031L1.24609 7.6875C0.894531 8.00391 0.894531 8.53125 1.24609 8.84766L8.06641 15.7031C8.38281 16.0195 8.91016 16.0195 9.26172 15.7031L10.0352 14.9297Z" fill="#9D9D9D"/>
</svg>
