<svg width="20" height="23" viewBox="0 0 20 23" fill="none" xmlns="http://www.w3.org/2000/svg">
<path d="M19.625 15.9688V1.53125C19.625 0.972656 19.1523 0.5 18.5938 0.5H4.5C2.22266 0.5 0.375 2.34766 0.375 4.625V18.375C0.375 20.6523 2.22266 22.5 4.5 22.5H18.5938C19.1523 22.5 19.625 22.0703 19.625 21.4688V20.7812C19.625 20.4805 19.4531 20.1797 19.2383 20.0078C19.0234 19.3203 19.0234 17.4297 19.2383 16.7852C19.4531 16.6133 19.625 16.3125 19.625 15.9688ZM6.77734 5.22656C7.80859 4.36719 9.35547 4.49609 10.3008 5.44141L10.6875 5.82812L11.0312 5.44141C11.9766 4.49609 13.5234 4.36719 14.5547 5.22656C15.7148 6.21484 15.8008 7.97656 14.7266 9.05078L11.0742 12.7031C10.8594 12.9609 10.4727 12.9609 10.2578 12.7031L6.60547 9.05078C5.53125 7.97656 5.61719 6.21484 6.77734 5.22656ZM16.7461 19.75H4.5C3.72656 19.75 3.125 19.1484 3.125 18.375C3.125 17.6445 3.72656 17 4.5 17H16.7461C16.6602 17.7734 16.6602 19.0195 16.7461 19.75Z" fill="#EC67B1"/>
</svg>
