<svg width="21" height="23" viewBox="0 0 21 23" fill="none" xmlns="http://www.w3.org/2000/svg">
<path d="M20.125 16.8965V1.08398C20.125 0.740234 19.7812 0.396484 19.4375 0.396484H4.3125C2.37891 0.396484 0.875 1.94336 0.875 3.83398V18.959C0.875 20.8926 2.37891 22.3965 4.3125 22.3965H19.4375C19.7812 22.3965 20.125 22.0957 20.125 21.709V21.0215C20.125 20.7207 19.8672 20.4199 19.5664 20.377C19.3516 19.8184 19.3516 18.1426 19.5664 17.584C19.8672 17.541 20.125 17.2402 20.125 16.8965ZM17.8047 20.334H4.3125C3.53906 20.334 2.9375 19.7324 2.9375 18.959C2.9375 18.2285 3.53906 17.584 4.3125 17.584H17.8047C17.6758 18.3574 17.6758 19.6035 17.8047 20.334ZM18.0625 15.5215H4.3125C3.79688 15.5215 3.32422 15.6504 2.9375 15.8223V3.83398C2.9375 3.10352 3.53906 2.45898 4.3125 2.45898H18.0625V15.5215ZM10.1133 12.6426C10.3281 12.8574 10.6289 12.8574 10.8438 12.6426L13.9805 9.5918C14.8828 8.68945 14.7969 7.22852 13.8086 6.36914C12.7773 5.55273 11.4883 5.93945 10.8008 6.58398L10.5 6.92773L10.1562 6.58398C9.51172 5.93945 8.17969 5.55273 7.14844 6.36914C6.16016 7.22852 6.07422 8.68945 6.97656 9.5918L10.1133 12.6426Z" fill="#FFC4E1"/>
</svg>
