<svg width="21" height="23" viewBox="0 0 21 23" fill="none" xmlns="http://www.w3.org/2000/svg">
<path d="M0.875 20.4375C0.875 21.5977 1.77734 22.5 2.9375 22.5H18.0625C19.1797 22.5 20.125 21.5977 20.125 20.4375V8.75H0.875V20.4375ZM14.625 12.0156C14.625 11.7578 14.8398 11.5 15.1406 11.5H16.8594C17.1172 11.5 17.375 11.7578 17.375 12.0156V13.7344C17.375 14.0352 17.1172 14.25 16.8594 14.25H15.1406C14.8398 14.25 14.625 14.0352 14.625 13.7344V12.0156ZM14.625 17.5156C14.625 17.2578 14.8398 17 15.1406 17H16.8594C17.1172 17 17.375 17.2578 17.375 17.5156V19.2344C17.375 19.5352 17.1172 19.75 16.8594 19.75H15.1406C14.8398 19.75 14.625 19.5352 14.625 19.2344V17.5156ZM9.125 12.0156C9.125 11.7578 9.33984 11.5 9.64062 11.5H11.3594C11.6172 11.5 11.875 11.7578 11.875 12.0156V13.7344C11.875 14.0352 11.6172 14.25 11.3594 14.25H9.64062C9.33984 14.25 9.125 14.0352 9.125 13.7344V12.0156ZM9.125 17.5156C9.125 17.2578 9.33984 17 9.64062 17H11.3594C11.6172 17 11.875 17.2578 11.875 17.5156V19.2344C11.875 19.5352 11.6172 19.75 11.3594 19.75H9.64062C9.33984 19.75 9.125 19.5352 9.125 19.2344V17.5156ZM3.625 12.0156C3.625 11.7578 3.83984 11.5 4.14062 11.5H5.85938C6.11719 11.5 6.375 11.7578 6.375 12.0156V13.7344C6.375 14.0352 6.11719 14.25 5.85938 14.25H4.14062C3.83984 14.25 3.625 14.0352 3.625 13.7344V12.0156ZM3.625 17.5156C3.625 17.2578 3.83984 17 4.14062 17H5.85938C6.11719 17 6.375 17.2578 6.375 17.5156V19.2344C6.375 19.5352 6.11719 19.75 5.85938 19.75H4.14062C3.83984 19.75 3.625 19.5352 3.625 19.2344V17.5156ZM18.0625 3.25H16V1.1875C16 0.84375 15.6562 0.5 15.3125 0.5H13.9375C13.5508 0.5 13.25 0.84375 13.25 1.1875V3.25H7.75V1.1875C7.75 0.84375 7.40625 0.5 7.0625 0.5H5.6875C5.30078 0.5 5 0.84375 5 1.1875V3.25H2.9375C1.77734 3.25 0.875 4.19531 0.875 5.3125V7.375H20.125V5.3125C20.125 4.19531 19.1797 3.25 18.0625 3.25Z" fill="#EC67B1"/>
</svg>
