<svg width="21" height="23" viewBox="0 0 21 23" fill="none" xmlns="http://www.w3.org/2000/svg">
<path d="M7.23438 12.875C7.49219 12.875 7.75 12.6602 7.75 12.3594V10.6406C7.75 10.3828 7.49219 10.125 7.23438 10.125H5.51562C5.21484 10.125 5 10.3828 5 10.6406V12.3594C5 12.6602 5.21484 12.875 5.51562 12.875H7.23438ZM11.875 12.3594V10.6406C11.875 10.3828 11.6172 10.125 11.3594 10.125H9.64062C9.33984 10.125 9.125 10.3828 9.125 10.6406V12.3594C9.125 12.6602 9.33984 12.875 9.64062 12.875H11.3594C11.6172 12.875 11.875 12.6602 11.875 12.3594ZM16 12.3594V10.6406C16 10.3828 15.7422 10.125 15.4844 10.125H13.7656C13.4648 10.125 13.25 10.3828 13.25 10.6406V12.3594C13.25 12.6602 13.4648 12.875 13.7656 12.875H15.4844C15.7422 12.875 16 12.6602 16 12.3594ZM11.875 16.4844V14.7656C11.875 14.5078 11.6172 14.25 11.3594 14.25H9.64062C9.33984 14.25 9.125 14.5078 9.125 14.7656V16.4844C9.125 16.7852 9.33984 17 9.64062 17H11.3594C11.6172 17 11.875 16.7852 11.875 16.4844ZM7.75 16.4844V14.7656C7.75 14.5078 7.49219 14.25 7.23438 14.25H5.51562C5.21484 14.25 5 14.5078 5 14.7656V16.4844C5 16.7852 5.21484 17 5.51562 17H7.23438C7.49219 17 7.75 16.7852 7.75 16.4844ZM16 16.4844V14.7656C16 14.5078 15.7422 14.25 15.4844 14.25H13.7656C13.4648 14.25 13.25 14.5078 13.25 14.7656V16.4844C13.25 16.7852 13.4648 17 13.7656 17H15.4844C15.7422 17 16 16.7852 16 16.4844ZM20.125 5.3125C20.125 4.19531 19.1797 3.25 18.0625 3.25H16V1.01562C16 0.757812 15.7422 0.5 15.4844 0.5H13.7656C13.4648 0.5 13.25 0.757812 13.25 1.01562V3.25H7.75V1.01562C7.75 0.757812 7.49219 0.5 7.23438 0.5H5.51562C5.21484 0.5 5 0.757812 5 1.01562V3.25H2.9375C1.77734 3.25 0.875 4.19531 0.875 5.3125V20.4375C0.875 21.5977 1.77734 22.5 2.9375 22.5H18.0625C19.1797 22.5 20.125 21.5977 20.125 20.4375V5.3125ZM18.0625 20.1797C18.0625 20.3516 17.9336 20.4375 17.8047 20.4375H3.19531C3.02344 20.4375 2.9375 20.3516 2.9375 20.1797V7.375H18.0625V20.1797Z" fill="#FFC4E1"/>
</svg>
