<svg width="25" height="23" viewBox="0 0 25 23" fill="none" xmlns="http://www.w3.org/2000/svg">
<path d="M23.8206 13.9062C22.4885 12.7891 20.8557 13.2188 20.0393 13.8633L17.4612 15.7969H17.2893C17.2893 14.1641 16.0002 12.875 14.3245 12.875H8.13696C6.93384 12.875 5.73071 13.3047 4.7854 14.0352L3.53931 14.9375H0.832275C0.445557 14.9375 0.144775 15.2812 0.144775 15.625V16.3125C0.144775 16.6992 0.445557 17 0.832275 17H4.26978L6.03149 15.668C6.63306 15.1953 7.36353 14.9375 8.13696 14.9375H14.3245C15.5276 14.9375 15.5706 16.6992 14.2815 16.6992H11.7034C11.4026 16.6992 11.1448 16.957 11.1448 17.2578V17.3008C11.1448 17.6016 11.4026 17.8594 11.7034 17.8594H17.5042C17.9338 17.8594 18.3206 17.7305 18.6643 17.4727L21.2854 15.4961C21.6292 15.2383 22.1877 15.2383 22.4885 15.4961C22.9612 15.8828 22.9182 16.4844 22.4885 16.8281L18.1487 20.0508C17.8049 20.3086 17.4182 20.4375 16.9885 20.4375H0.832275C0.445557 20.4375 0.144775 20.7812 0.144775 21.125V21.8125C0.144775 22.1992 0.445557 22.5 0.832275 22.5H16.9885C17.8479 22.5 18.7073 22.2422 19.3948 21.7266L23.6917 18.4609C24.4221 17.9453 24.8518 17.1289 24.8518 16.2266C24.8948 15.3672 24.5081 14.5078 23.8206 13.9062ZM11.1877 6.73047L13.3362 7.33203C13.5081 7.375 13.594 7.50391 13.594 7.67578C13.594 7.89062 13.4651 8.0625 13.2502 8.0625H11.8323C11.7034 8.0625 11.5315 8.01953 11.4026 7.93359C11.1877 7.84766 10.9299 7.89062 10.801 8.01953L10.0276 8.79297C9.81274 9.00781 9.85571 9.39453 10.1135 9.56641C10.5002 9.86719 10.9729 9.99609 11.4885 10.082V10.8125C11.4885 11.1992 11.7893 11.5 12.176 11.5H12.8635C13.2073 11.5 13.551 11.1992 13.551 10.8125V10.082C14.8401 9.91016 15.8284 8.75 15.6565 7.375C15.5276 6.38672 14.7542 5.61328 13.8088 5.3125L11.6604 4.71094C11.4885 4.66797 11.4026 4.49609 11.4026 4.36719C11.4026 4.15234 11.5745 3.98047 11.7463 3.98047H13.1643C13.3362 3.98047 13.4651 4.02344 13.594 4.10938C13.8088 4.19531 14.0667 4.15234 14.1956 4.02344L14.969 3.25C15.1838 3.03516 15.1838 2.64844 14.8831 2.47656C14.4963 2.17578 14.0237 2.04688 13.551 1.96094V1.1875C13.551 0.84375 13.2073 0.5 12.8635 0.5H12.176C11.7893 0.5 11.4885 0.84375 11.4885 1.1875V1.96094C10.1565 2.13281 9.16821 3.29297 9.34009 4.66797C9.46899 5.65625 10.2424 6.42969 11.1877 6.73047Z" fill="#FFC4E1"/>
</svg>
