<svg width="25" height="23" viewBox="0 0 25 23" fill="none" xmlns="http://www.w3.org/2000/svg">
<path d="M11.7695 6.73047L14.0898 7.33203C14.2617 7.375 14.3477 7.50391 14.3477 7.67578C14.3477 7.89062 14.1758 8.0625 13.9609 8.0625H12.457C12.2852 8.0625 12.1133 8.01953 11.9844 7.93359C11.7266 7.84766 11.4688 7.89062 11.2969 8.01953L10.4805 8.79297C10.4375 8.83594 10.4375 8.87891 10.3945 8.92188C10.3516 8.96484 10.3086 9.05078 10.3086 9.13672C10.3086 9.35156 10.4375 9.48047 10.5664 9.56641C10.9961 9.82422 11.5117 10.0391 12.0273 10.082V10.8125C12.0273 11.1992 12.3711 11.5 12.8008 11.5H13.5312C13.9609 11.5 14.3047 11.1992 14.3047 10.8125V10.082C15.6797 9.91016 16.7539 8.75 16.582 7.375C16.4531 6.38672 15.6367 5.61328 14.5625 5.3125L12.2422 4.71094C12.0703 4.66797 11.9844 4.53906 11.9844 4.36719C11.9844 4.15234 12.1562 3.98047 12.3711 3.98047H13.875C14.0469 3.98047 14.2188 4.02344 14.3906 4.10938C14.6055 4.19531 14.8633 4.15234 15.0352 4.02344L15.8516 3.25C15.8945 3.20703 15.8945 3.16406 15.9375 3.12109C15.9805 3.07812 16.0234 2.99219 16.0234 2.90625C16.0234 2.69141 15.8945 2.5625 15.7656 2.47656C15.3359 2.21875 14.8203 2.04688 14.3047 1.96094V1.1875C14.3047 0.84375 13.9609 0.5 13.5312 0.5H12.8008C12.3711 0.5 12.0703 0.84375 12.0703 1.1875V1.96094C10.6523 2.13281 9.57812 3.29297 9.75 4.66797C9.87891 5.65625 10.7383 6.42969 11.7695 6.73047ZM24.4023 14.6367C23.8867 14.1641 23.1133 14.207 22.5547 14.6367L18.6016 17.7734C18.1289 18.1602 17.5273 18.375 16.8828 18.375H11.8125C11.4258 18.375 11.125 18.0742 11.125 17.6875C11.125 17.3438 11.4258 17 11.8125 17H15.1641C15.8516 17 16.4961 16.5703 16.582 15.8828C16.582 15.7969 16.625 15.7109 16.625 15.668C16.625 15.625 16.625 15.625 16.625 15.625C16.582 14.8945 15.9805 14.25 15.25 14.25H8.375C7.12891 14.293 6.05469 14.6797 5.15234 15.4102L3.17578 17H0.8125C0.425781 17 0.125 17.3438 0.125 17.6875V21.8125C0.125 22.1992 0.425781 22.5 0.8125 22.5H16.1094C16.7539 22.5 17.3555 22.2852 17.8281 21.8984L24.3594 16.6992C24.6602 16.4844 24.875 16.0977 24.875 15.625C24.875 15.2383 24.6602 14.8516 24.4023 14.6367Z" fill="#EC67B1"/>
</svg>
