<svg width="28" height="28" viewBox="0 0 28 28" fill="none" xmlns="http://www.w3.org/2000/svg">
<circle cx="14" cy="14" r="14" fill="#D9D9D9"/>
<path d="M15.0645 14.375L18.2285 11.2402C18.4043 11.0645 18.4043 10.7422 18.2285 10.5664L17.4961 9.83398C17.3203 9.6582 16.998 9.6582 16.8223 9.83398L13.6875 12.998L10.5234 9.83398C10.3477 9.6582 10.0254 9.6582 9.84961 9.83398L9.11719 10.5664C8.94141 10.7422 8.94141 11.0645 9.11719 11.2402L12.2812 14.375L9.11719 17.5391C8.94141 17.7148 8.94141 18.0371 9.11719 18.2129L9.84961 18.9453C10.0254 19.1211 10.3477 19.1211 10.5234 18.9453L13.6875 15.7812L16.8223 18.9453C16.998 19.1211 17.3203 19.1211 17.4961 18.9453L18.2285 18.2129C18.4043 18.0371 18.4043 17.7148 18.2285 17.5391L15.0645 14.375Z" fill="white"/>
</svg>
