<svg width="26" height="20" viewBox="0 0 26 20" fill="none" xmlns="http://www.w3.org/2000/svg">
<path d="M25.1172 9.73828L22.625 7.67578V3.55078C22.625 3.37891 22.4531 3.20703 22.2812 3.20703H20.9062C20.6914 3.25 20.5625 3.37891 20.5625 3.55078V6L14.5039 1.01562C14.1172 0.671875 13.5586 0.5 13 0.5C12.3984 0.5 11.8398 0.671875 11.4531 1.01562L0.839844 9.73828C0.710938 9.86719 0.625 10.0391 0.625 10.2539C0.625 10.4258 0.667969 10.5977 0.753906 10.6836L1.22656 11.2422C1.3125 11.3711 1.52734 11.457 1.74219 11.457C1.91406 11.457 2.04297 11.4141 2.17188 11.3281L3.375 10.3398V18.332C3.375 19.1055 3.97656 19.707 4.75 19.707H10.25C10.9805 19.707 11.582 19.1055 11.625 18.332V13.8633H14.375V18.332C14.375 19.1055 14.9766 19.707 15.75 19.707H21.25C21.9805 19.707 22.582 19.1055 22.625 18.375V10.3398L23.7852 11.3281C23.9141 11.4141 24.043 11.5 24.2148 11.5C24.4297 11.5 24.6445 11.3711 24.7734 11.2422L25.2031 10.6836C25.2891 10.5977 25.375 10.4258 25.375 10.2539C25.375 10.0391 25.2461 9.86719 25.1172 9.73828ZM20.5195 17.6445H16.4375V13.1758C16.3945 12.4453 15.793 11.8438 15.0625 11.8008H10.9375C10.1641 11.8438 9.5625 12.4453 9.5625 13.1758V17.6445H5.4375V8.66406L13 2.43359L20.5625 8.66406L20.5195 17.6445Z" fill="#FFC4E1"/>
</svg>
