<svg width="25" height="20" viewBox="0 0 25 20" fill="none" xmlns="http://www.w3.org/2000/svg">
<path d="M12.1777 5.38086L4.27148 11.9121V18.916C4.27148 19.3027 4.57227 19.6035 4.95898 19.6035H9.77148C10.1152 19.6035 10.416 19.3027 10.416 18.916V14.791C10.416 14.4473 10.7598 14.1035 11.1035 14.1035H13.8535C14.2402 14.1035 14.541 14.4473 14.541 14.791V18.916C14.541 19.3027 14.8848 19.6035 15.2285 19.6035H20.084C20.4277 19.6035 20.7715 19.3027 20.7715 18.916V11.8691L12.8223 5.38086C12.7363 5.29492 12.6074 5.25195 12.5215 5.25195C12.3926 5.25195 12.2637 5.29492 12.1777 5.38086ZM24.6816 9.80664L21.1152 6.8418V0.912109C21.1152 0.611328 20.8574 0.396484 20.5996 0.396484H18.1934C17.8926 0.396484 17.6777 0.611328 17.6777 0.912109V4.00586L13.8105 0.826172C13.4668 0.568359 12.9941 0.396484 12.5215 0.396484C12.0059 0.396484 11.5332 0.568359 11.1895 0.826172L0.318359 9.80664C0.189453 9.89258 0.103516 10.0645 0.103516 10.1934C0.103516 10.3223 0.189453 10.4512 0.232422 10.5371L1.34961 11.8691C1.43555 11.998 1.56445 12.041 1.73633 12.041C1.86523 12.041 1.99414 11.998 2.08008 11.9121L12.1777 3.61914C12.2637 3.5332 12.3926 3.49023 12.5215 3.49023C12.6074 3.49023 12.7363 3.5332 12.8223 3.61914L22.9199 11.9121C23.0059 11.998 23.1348 12.041 23.2637 12.041C23.4355 12.041 23.5645 11.998 23.6504 11.8691L24.7676 10.5371C24.8535 10.4512 24.8965 10.3223 24.8965 10.1934C24.8965 10.0645 24.8105 9.89258 24.6816 9.80664Z" fill="#EC67B1"/>
</svg>
