<svg width="22" height="22" viewBox="0 0 22 22" fill="none" xmlns="http://www.w3.org/2000/svg">
<path d="M11.0246 5.32812C7.8817 5.32812 5.37723 7.8817 5.37723 10.9754C5.37723 14.1183 7.8817 16.6228 11.0246 16.6228C14.1183 16.6228 16.6719 14.1183 16.6719 10.9754C16.6719 7.8817 14.1183 5.32812 11.0246 5.32812ZM11.0246 14.6585C9.01116 14.6585 7.34152 13.0379 7.34152 10.9754C7.34152 8.96205 8.96205 7.34152 11.0246 7.34152C13.0379 7.34152 14.6585 8.96205 14.6585 10.9754C14.6585 13.0379 13.0379 14.6585 11.0246 14.6585ZM18.1942 5.1317C18.1942 4.39509 17.6049 3.8058 16.8683 3.8058C16.1317 3.8058 15.5424 4.39509 15.5424 5.1317C15.5424 5.8683 16.1317 6.45759 16.8683 6.45759C17.6049 6.45759 18.1942 5.8683 18.1942 5.1317ZM21.9263 6.45759C21.8281 4.68973 21.4353 3.1183 20.1585 1.84152C18.8817 0.564732 17.3103 0.171875 15.5424 0.0736607C13.7254 -0.0245536 8.27455 -0.0245536 6.45759 0.0736607C4.68973 0.171875 3.16741 0.564732 1.84152 1.84152C0.564732 3.1183 0.171875 4.68973 0.0736607 6.45759C-0.0245536 8.27455 -0.0245536 13.7254 0.0736607 15.5424C0.171875 17.3103 0.564732 18.8326 1.84152 20.1585C3.16741 21.4353 4.68973 21.8281 6.45759 21.9263C8.27455 22.0246 13.7254 22.0246 15.5424 21.9263C17.3103 21.8281 18.8817 21.4353 20.1585 20.1585C21.4353 18.8326 21.8281 17.3103 21.9263 15.5424C22.0246 13.7254 22.0246 8.27455 21.9263 6.45759ZM19.5692 17.4576C19.2254 18.4397 18.4397 19.1763 17.5067 19.5692C16.0335 20.1585 12.596 20.0112 11.0246 20.0112C9.40402 20.0112 5.96652 20.1585 4.54241 19.5692C3.56027 19.1763 2.82366 18.4397 2.4308 17.4576C1.84152 16.0335 1.98884 12.596 1.98884 10.9754C1.98884 9.40402 1.84152 5.96652 2.4308 4.4933C2.82366 3.56027 3.56027 2.82366 4.54241 2.4308C5.96652 1.84152 9.40402 1.98884 11.0246 1.98884C12.596 1.98884 16.0335 1.84152 17.5067 2.4308C18.4397 2.77455 19.1763 3.56027 19.5692 4.4933C20.1585 5.96652 20.0112 9.40402 20.0112 10.9754C20.0112 12.596 20.1585 16.0335 19.5692 17.4576Z" fill="#FFFFFF"/>
</svg>
