<svg width="17" height="22" viewBox="0 0 17 22" fill="none" xmlns="http://www.w3.org/2000/svg">
<path d="M8.24195 0C3.64878 0 0 3.73463 0 8.24195C0 11.3327 0.987317 12.2771 6.48195 21.0341C7.29756 22.322 9.14341 22.322 9.95902 21.0341C15.4537 12.2771 16.4839 11.3327 16.4839 8.24195C16.4839 3.69171 12.7493 0 8.24195 0ZM8.24195 19.918C2.74732 11.161 2.06049 10.6029 2.06049 8.24195C2.06049 4.85073 4.80781 2.06049 8.24195 2.06049C11.6332 2.06049 14.4234 4.85073 14.4234 8.24195C14.4234 10.6029 13.7366 11.0751 8.24195 19.918ZM4.80781 8.24195C4.80781 10.1737 6.31024 11.6761 8.24195 11.6761C10.1307 11.6761 11.6761 10.1737 11.6761 8.24195C11.6761 6.35317 10.1307 4.80781 8.24195 4.80781C6.31024 4.80781 4.80781 6.35317 4.80781 8.24195Z" fill="#FFFFFF"/>
</svg>
