<svg width="114" height="32" viewBox="0 0 114 32" fill="none" xmlns="http://www.w3.org/2000/svg">
<g clip-path="url(#clip0_55_298)">
<path d="M15.93 7.57721e-06C12.5205 -0.00329045 9.20002 1.08811 6.45731 3.11354C3.71461 5.13897 1.69462 7.99143 0.69468 11.251C-0.305256 14.5106 -0.232309 18.0051 0.902794 21.2201C2.0379 24.4351 4.17518 27.2008 7.00002 29.11V10.83C7.00002 10.5038 7.12961 10.1909 7.36028 9.96027C7.59095 9.7296 7.9038 9.60001 8.23002 9.60001C8.55624 9.60001 8.8691 9.7296 9.09977 9.96027C9.33044 10.1909 9.46003 10.5038 9.46003 10.83V30.48C11.6284 31.4465 13.9853 31.9162 16.3585 31.8546C18.7318 31.7931 21.0612 31.2019 23.1765 30.1243C25.2919 29.0467 27.1396 27.5099 28.5846 25.6263C30.0297 23.7428 31.0354 21.56 31.5284 19.2378C32.0213 16.9155 31.989 14.5124 31.4337 12.2043C30.8785 9.8961 29.8144 7.74121 28.3192 5.89719C26.8241 4.05318 24.9357 2.56666 22.7921 1.54633C20.6485 0.526011 18.304 -0.00230774 15.93 7.57721e-06ZM26.68 20.14C26.6822 20.3727 26.6161 20.6009 26.4899 20.7964C26.3637 20.9919 26.183 21.1462 25.97 21.24C19.21 24.18 17.83 18.59 10.69 22.13V10.62C18.74 6.98001 18.2 12.89 24.78 9.53001C24.9647 9.41716 25.1755 9.3542 25.3918 9.34727C25.6081 9.34035 25.8225 9.38969 26.014 9.49049C26.2055 9.59128 26.3676 9.74006 26.4843 9.92228C26.6011 10.1045 26.6685 10.3139 26.68 10.53V20.14Z" fill="#EC67B1"/>
<path d="M39.1899 9.46998H43.9599C45.2785 9.40625 46.5733 9.83784 47.5899 10.68C48.0411 11.0704 48.3991 11.5569 48.6379 12.1036C48.8767 12.6504 48.9902 13.2437 48.9699 13.84C49.0047 14.476 48.893 15.1115 48.6433 15.6976C48.3936 16.2836 48.0127 16.8044 47.5299 17.22C46.4406 18.0968 45.0665 18.5418 43.6699 18.47H41.4599V22.17H39.1899V9.46998ZM41.4299 16.38H43.8899C44.6434 16.4152 45.3825 16.1652 45.9599 15.68C46.2201 15.4513 46.426 15.1675 46.5627 14.8492C46.6993 14.5309 46.7633 14.1861 46.7499 13.84C46.7578 13.5295 46.6931 13.2214 46.5612 12.9402C46.4293 12.659 46.2337 12.4125 45.9899 12.22C45.3961 11.7709 44.6636 11.5444 43.9199 11.58H41.4599L41.4299 16.38Z" fill="#383838"/>
<path d="M50.6202 10.14C50.615 9.96462 50.6471 9.79017 50.7143 9.62813C50.7815 9.46609 50.8824 9.32016 51.0102 9.19998C51.263 8.94961 51.6044 8.80914 51.9602 8.80914C52.316 8.80914 52.6574 8.94961 52.9102 9.19998C53.038 9.32016 53.1388 9.46609 53.2061 9.62813C53.2733 9.79017 53.3054 9.96462 53.3002 10.14C53.303 10.3106 53.2697 10.4799 53.2025 10.6367C53.1353 10.7935 53.0357 10.9344 52.9102 11.05C52.6515 11.2889 52.3123 11.4216 51.9602 11.4216C51.608 11.4216 51.2688 11.2889 51.0102 11.05C50.8847 10.9344 50.7851 10.7935 50.7178 10.6367C50.6506 10.4799 50.6173 10.3106 50.6202 10.14ZM53.0402 13.32V22.13H50.9002V13.32H53.0402Z" fill="#383838"/>
<path d="M60.59 13.04C61.1126 13.0235 61.6327 13.1204 62.1143 13.3241C62.596 13.5278 63.0277 13.8335 63.38 14.22C64.1173 15.0676 64.4973 16.1681 64.44 17.29V22.15H62.3V17.4C62.3434 16.7541 62.1356 16.1163 61.72 15.62C61.5157 15.4104 61.2692 15.2466 60.9968 15.1397C60.7243 15.0328 60.4322 14.9852 60.14 15C59.6947 15.0219 59.2599 15.1428 58.8673 15.3538C58.4746 15.5649 58.1339 15.8608 57.8699 16.22V22.09H55.71V13.32H57.8699V14.05C58.6232 13.3931 59.5905 13.0339 60.59 13.04Z" fill="#383838"/>
<path d="M70.5501 18.52L68.9701 20.16V22.16H66.8301V8.90997H68.9701V17.33L72.8401 13.33H75.5801L72.0401 16.98L76.0401 22.14H73.2901L70.5501 18.52Z" fill="#383838"/>
<path d="M79.34 10.68V15.54H85.86V16.77H79.34V22.13H78.02V9.46997H86.66V10.68H79.34Z" fill="#383838"/>
<path d="M90.1902 8.90997V22.13H88.9302V8.90997H90.1902Z" fill="#383838"/>
<path d="M101.71 13.53V22.13H100.43V21.22C99.5705 22.0084 98.44 22.4349 97.2739 22.4106C96.1079 22.3864 94.9961 21.9134 94.17 21.09C93.743 20.6715 93.4064 20.1697 93.1811 19.6159C92.9557 19.062 92.8465 18.4678 92.86 17.87C92.8468 17.2752 92.9563 16.6841 93.1817 16.1336C93.4071 15.583 93.7435 15.0848 94.17 14.67C94.5751 14.2433 95.064 13.9048 95.6061 13.6759C96.1481 13.4471 96.7317 13.3327 97.32 13.34C98.4733 13.3096 99.5916 13.7375 100.43 14.53V13.53H101.71ZM97.48 21.22C98.0735 21.2422 98.6625 21.109 99.1886 20.8337C99.7148 20.5583 100.16 20.1503 100.48 19.65V15.95C100.161 15.4483 99.7166 15.0392 99.1901 14.7636C98.6635 14.4881 98.0738 14.3558 97.48 14.38C97.0353 14.3704 96.5936 14.4545 96.1836 14.6268C95.7736 14.7991 95.4044 15.0557 95.1 15.38C94.4891 16.0338 94.1493 16.8952 94.1493 17.79C94.1493 18.6848 94.4891 19.5462 95.1 20.2C95.4045 20.5255 95.7733 20.7842 96.183 20.9598C96.5926 21.1354 97.0343 21.224 97.48 21.22Z" fill="#383838"/>
<path d="M113.19 13.53V22.41C113.223 22.9809 113.132 23.5521 112.925 24.0851C112.718 24.6182 112.399 25.1006 111.99 25.5C111.579 25.8901 111.093 26.1937 110.563 26.393C110.032 26.5922 109.467 26.683 108.9 26.66C107.882 26.6873 106.885 26.3701 106.07 25.76C105.313 25.2071 104.806 24.3763 104.66 23.45H105.98C106.041 23.7503 106.161 24.0356 106.333 24.2896C106.504 24.5436 106.724 24.7612 106.98 24.93C107.553 25.3131 108.232 25.5056 108.92 25.48C109.322 25.4956 109.723 25.4301 110.099 25.2875C110.476 25.1449 110.819 24.9281 111.11 24.65C111.391 24.351 111.609 23.9988 111.752 23.614C111.894 23.2293 111.958 22.8199 111.94 22.41V20.9C111.511 21.3075 111.006 21.6259 110.453 21.8371C109.9 22.0482 109.311 22.1477 108.72 22.13C108.141 22.1436 107.566 22.0369 107.031 21.8165C106.495 21.5962 106.012 21.2671 105.61 20.85C104.806 19.9903 104.358 18.8572 104.358 17.68C104.358 16.5028 104.806 15.3696 105.61 14.51C106.006 14.0961 106.483 13.768 107.011 13.5461C107.539 13.3241 108.107 13.2132 108.68 13.22C109.271 13.2022 109.86 13.3018 110.413 13.5129C110.966 13.724 111.471 14.0425 111.9 14.45V13.52L113.19 13.53ZM108.85 21.01C109.458 21.0292 110.061 20.8901 110.599 20.606C111.138 20.322 111.593 19.903 111.92 19.39V15.97C111.593 15.457 111.138 15.0379 110.599 14.7539C110.061 14.4699 109.458 14.3307 108.85 14.35C108.416 14.3433 107.986 14.429 107.587 14.6015C107.189 14.7739 106.832 15.029 106.54 15.35C105.928 16.0007 105.597 16.8668 105.62 17.76C105.609 18.6274 105.939 19.4644 106.54 20.09C106.837 20.3939 107.194 20.6327 107.588 20.7911C107.982 20.9495 108.405 21.024 108.83 21.01H108.85Z" fill="#383838"/>
</g>
<defs>
<clipPath id="clip0_55_298">
<rect width="113.17" height="31.85" fill="white"/>
</clipPath>
</defs>
</svg>
