<svg width="23" height="18" viewBox="0 0 23 18" fill="none" xmlns="http://www.w3.org/2000/svg">
<path d="M20.4214 0.75H2.54639C1.38623 0.75 0.483887 1.69531 0.483887 2.8125V15.1875C0.483887 16.3477 1.38623 17.25 2.54639 17.25H20.4214C21.5386 17.25 22.4839 16.3477 22.4839 15.1875V2.8125C22.4839 1.69531 21.5386 0.75 20.4214 0.75ZM20.4214 2.8125V4.57422C19.4331 5.39062 17.8862 6.59375 14.6206 9.17188C13.8901 9.73047 12.4722 11.1055 11.4839 11.0625C10.4526 11.1055 9.03467 9.73047 8.3042 9.17188C5.03857 6.59375 3.4917 5.39062 2.54639 4.57422V2.8125H20.4214ZM2.54639 15.1875V7.23828C3.4917 8.01172 4.90967 9.12891 7.01514 10.8047C7.96045 11.5352 9.63623 13.168 11.4839 13.125C13.2886 13.168 14.9214 11.5352 15.9097 10.8047C18.0151 9.12891 19.4331 8.01172 20.4214 7.23828V15.1875H2.54639Z" fill="#FFFFFF"/>
</svg>
