<svg width="20" height="20" viewBox="0 0 20 20" fill="none" xmlns="http://www.w3.org/2000/svg">
<path d="M19.0788 12.0071L17.3991 11.0696C17.5944 10.1321 17.5944 9.23361 17.3991 8.29611L19.0788 7.35861C19.2741 7.24143 19.3522 7.00705 19.2741 6.81174C18.8444 5.40549 18.1022 4.15549 17.1647 3.1008C17.0085 2.94455 16.7741 2.90549 16.5788 3.02268L14.8991 3.96018C14.196 3.37424 13.4147 2.90549 12.5553 2.59299V0.678926C12.5553 0.483613 12.3991 0.288301 12.1647 0.249238C10.7194 -0.102324 9.27408 -0.0632615 7.90689 0.249238C7.67252 0.288301 7.55533 0.483613 7.55533 0.678926V2.59299C6.65689 2.90549 5.87564 3.37424 5.17252 3.99924L3.49283 3.02268C3.29752 2.90549 3.06314 2.94455 2.90689 3.1008C1.96939 4.15549 1.2272 5.40549 0.797516 6.81174C0.719391 7.00705 0.797516 7.24143 0.992828 7.35861L2.67252 8.29611C2.51627 9.23361 2.51627 10.1321 2.67252 11.0696L0.992828 12.0071C0.797516 12.1242 0.719391 12.3586 0.797516 12.5539C1.2272 13.9602 1.96939 15.2102 2.90689 16.2649C3.06314 16.4211 3.29752 16.4602 3.49283 16.343L5.17252 15.4055C5.87564 15.9914 6.65689 16.4602 7.55533 16.7727V18.6867C7.55533 18.8821 7.71158 19.0774 7.90689 19.1555C9.3522 19.468 10.7975 19.4289 12.1647 19.1555C12.3991 19.0774 12.5553 18.8821 12.5553 18.6867V16.7727C13.4147 16.4602 14.196 15.9914 14.8991 15.4055L16.5788 16.343C16.7741 16.4602 17.0085 16.4211 17.1647 16.2649C18.1413 15.2102 18.8444 13.9602 19.3131 12.5539C19.3522 12.3586 19.2741 12.1242 19.0788 12.0071ZM10.0553 12.7883C8.29752 12.7883 6.93033 11.4211 6.93033 9.6633C6.93033 7.94455 8.29752 6.5383 10.0553 6.5383C11.7741 6.5383 13.1803 7.94455 13.1803 9.6633C13.1803 11.4211 11.7741 12.7883 10.0553 12.7883Z" fill="#8E8E8E"/>
</svg>
