<svg width="28" height="28" viewBox="0 0 28 28" fill="none" xmlns="http://www.w3.org/2000/svg">
<path d="M14.0312 6.78125C10.0312 6.78125 6.84375 10.0312 6.84375 13.9688C6.84375 17.9688 10.0312 21.1562 14.0312 21.1562C17.9688 21.1562 21.2188 17.9688 21.2188 13.9688C21.2188 10.0312 17.9688 6.78125 14.0312 6.78125ZM14.0312 18.6562C11.4688 18.6562 9.34375 16.5938 9.34375 13.9688C9.34375 11.4062 11.4062 9.34375 14.0312 9.34375C16.5938 9.34375 18.6562 11.4062 18.6562 13.9688C18.6562 16.5938 16.5938 18.6562 14.0312 18.6562ZM23.1562 6.53125C23.1562 5.59375 22.4062 4.84375 21.4688 4.84375C20.5312 4.84375 19.7812 5.59375 19.7812 6.53125C19.7812 7.46875 20.5312 8.21875 21.4688 8.21875C22.4062 8.21875 23.1562 7.46875 23.1562 6.53125ZM27.9062 8.21875C27.7812 5.96875 27.2812 3.96875 25.6562 2.34375C24.0312 0.71875 22.0312 0.21875 19.7812 0.09375C17.4688 -0.03125 10.5312 -0.03125 8.21875 0.09375C5.96875 0.21875 4.03125 0.71875 2.34375 2.34375C0.71875 3.96875 0.21875 5.96875 0.09375 8.21875C-0.03125 10.5312 -0.03125 17.4688 0.09375 19.7812C0.21875 22.0312 0.71875 23.9688 2.34375 25.6562C4.03125 27.2812 5.96875 27.7812 8.21875 27.9062C10.5312 28.0312 17.4688 28.0312 19.7812 27.9062C22.0312 27.7812 24.0312 27.2812 25.6562 25.6562C27.2812 23.9688 27.7812 22.0312 27.9062 19.7812C28.0312 17.4688 28.0312 10.5312 27.9062 8.21875ZM24.9062 22.2188C24.4688 23.4688 23.4688 24.4062 22.2812 24.9062C20.4062 25.6562 16.0312 25.4688 14.0312 25.4688C11.9688 25.4688 7.59375 25.6562 5.78125 24.9062C4.53125 24.4062 3.59375 23.4688 3.09375 22.2188C2.34375 20.4062 2.53125 16.0312 2.53125 13.9688C2.53125 11.9688 2.34375 7.59375 3.09375 5.71875C3.59375 4.53125 4.53125 3.59375 5.78125 3.09375C7.59375 2.34375 11.9688 2.53125 14.0312 2.53125C16.0312 2.53125 20.4062 2.34375 22.2812 3.09375C23.4688 3.53125 24.4062 4.53125 24.9062 5.71875C25.6562 7.59375 25.4688 11.9688 25.4688 13.9688C25.4688 16.0312 25.6562 20.4062 24.9062 22.2188Z" fill="white"/>
</svg>
